<svg id="Livello_1" data-name="Livello 1" xmlns="http://www.w3.org/2000/svg" viewBox="0 0 475 475"><defs><style>.cls-1{fill:#fff;stroke:#000;stroke-miterlimit:10;stroke-width:3px;}.cls-2{fill:#333;}.cls-3{fill:#396;}</style></defs><title>vanda-logo</title><circle class="cls-1" cx="237.5" cy="237.5" r="236"/><path class="cls-2" d="M113,180.78c11.89-.4,23.42-.14,34.78-1.4,6.72-.75,8.85,2.42,11.2,7.36,11.37,23.35,23,46.59,34.52,69.86q13,26.28,26,52.57,13.53,27.43,27,54.88,10,20.26,20.06,40.62c.28.59.47,1.23.77,2a5.85,5.85,0,0,1-1.64.72c-12.37.79-24.75,1.4-37.12,2.34-2.8.2-3.69-1.4-4.65-3.29q-10.89-21.94-21.77-43.91-17.06-34.62-34.14-69.13c-9.87-19.9-19.87-39.74-29.72-59.65q-12.6-25.54-25.05-51.2A10,10,0,0,1,113,180.78Z" transform="translate(-18.5 -15.5)"/><path class="cls-2" d="M337.61,194c7,15,17.52,24.91,33.41,29.42-2.29,4.32-4.34,8.4-6.58,12.33q-18.49,32.61-37.11,65.17c-9.3,16.25-18.76,32.41-28,48.67-8.74,15.28-17.33,30.65-26,46a18.21,18.21,0,0,1-2,2.45c-2.8-5.28-5.38-10.17-7.84-15.13-4.55-9.12-8.95-18.3-13.53-27.41a8.39,8.39,0,0,1,.28-8.95c11.37-19.41,22.48-39,33.61-58.5q15.72-27.48,31.35-55c6.55-11.52,13-23.09,19.6-34.63C335.46,197.12,336.25,196,337.61,194Z" transform="translate(-18.5 -15.5)"/><path class="cls-3" d="M380.28,213.35c-23.81,1.89-39.49-22.62-36.41-43.6,1.9-12.89,7.56-23,19-29.41,20.9-11.64,45.61,0,52,21.7,4.87,16.57,1.19,31.13-11,43.41C398.91,210.48,390.09,213.35,380.28,213.35Z" transform="translate(-18.5 -15.5)"/></svg>